<?xml version="1.0" standalone="no"?>
<!DOCTYPE svg PUBLIC "-//W3C//DTD SVG 20010904//EN"
 "http://www.w3.org/TR/2001/REC-SVG-20010904/DTD/svg10.dtd">
<svg version="1.0" xmlns="http://www.w3.org/2000/svg"
 width="558.000000pt" height="558.000000pt" viewBox="0 0 558.000000 558.000000"
 preserveAspectRatio="xMidYMid meet">
<metadata>
Created by potrace 1.14, written by Peter Selinger 2001-2017
</metadata>
<g transform="translate(0.000000,558.000000) scale(0.100000,-0.100000)"
fill="#000000" stroke="none">
<path d="M3980 5142 c-10 -5 -15 -21 -15 -47 0 -22 -3 -42 -7 -45 -13 -10 -17
-59 -5 -63 7 -2 0 -10 -15 -17 -32 -15 -47 -65 -16 -57 16 5 19 1 16 -26 -2
-23 -8 -31 -19 -29 -13 2 -16 -5 -14 -27 1 -16 5 -34 9 -40 4 -6 2 -11 -4 -11
-20 0 -31 -50 -19 -84 7 -20 7 -40 1 -56 -6 -17 -5 -34 3 -55 14 -33 14 -73
-1 -83 -11 -8 -15 -24 -19 -78 -5 -61 -22 -118 -44 -146 -11 -13 -21 -39 -23
-58 -3 -28 -12 -38 -49 -58 -43 -24 -47 -25 -92 -12 -28 9 -47 20 -47 29 0 8
-3 11 -6 8 -13 -12 -46 15 -60 49 -8 19 -22 35 -32 36 -9 1 -24 2 -33 3 -9 0
-28 9 -44 19 -15 10 -24 13 -21 7 4 -6 0 -11 -8 -11 -9 0 -16 6 -16 14 0 15
-43 61 -57 61 -4 0 -22 10 -39 22 -21 15 -35 19 -45 12 -20 -13 -29 -11 -29 5
0 8 -9 21 -21 29 -14 10 -21 29 -24 58 -5 58 -33 81 -86 73 -32 -5 -39 -4 -39
10 0 17 46 97 63 107 5 4 6 12 3 18 -4 6 -2 11 5 11 8 0 9 3 0 13 -6 8 -8 17
-4 20 3 4 1 7 -6 7 -8 0 -9 6 -3 18 5 9 7 22 5 29 -5 14 33 37 47 28 6 -3 10
1 10 10 0 9 5 13 10 10 6 -3 11 -1 11 4 1 6 2 16 3 21 0 6 6 14 12 18 15 10
40 57 25 48 -6 -4 -11 -2 -11 3 0 19 -18 12 -25 -9 -5 -15 -15 -20 -41 -20
-21 0 -33 4 -29 10 3 6 -3 10 -14 10 -12 0 -21 5 -21 10 0 6 -7 10 -15 10 -8
0 -15 -4 -15 -10 0 -5 -8 -8 -17 -6 -39 9 -63 19 -63 26 0 4 -21 7 -47 7 -27
0 -48 4 -51 11 -2 7 -12 12 -23 12 -10 0 -19 3 -19 8 0 6 -17 10 -72 15 -9 1
-15 4 -13 8 3 3 -2 15 -10 25 -13 18 -14 18 -23 -6 -5 -14 -7 -38 -5 -54 4
-23 2 -28 -11 -23 -10 4 -16 1 -16 -9 0 -10 -8 -13 -25 -10 -14 3 -25 1 -25
-3 0 -12 -114 -8 -122 4 -11 14 -28 -14 -20 -33 4 -12 -1 -14 -29 -9 -21 5
-29 4 -20 -2 8 -5 11 -16 8 -25 -5 -14 -11 -15 -27 -6 -18 10 -20 8 -20 -17 0
-20 -3 -24 -9 -14 -7 10 -10 11 -16 1 -5 -8 -2 -18 7 -24 9 -6 15 -23 15 -36
0 -21 -5 -25 -29 -26 -34 -1 -35 -2 -40 -34 -1 -14 -14 -35 -27 -47 -21 -18
-22 -24 -12 -37 7 -9 17 -13 22 -10 5 3 9 -2 9 -10 0 -9 7 -16 15 -16 24 0 17
-29 -10 -42 -17 -7 -21 -14 -14 -19 6 -4 8 -12 5 -18 -11 -17 -44 -13 -49 7
-4 14 -5 15 -6 1 0 -9 -10 -19 -22 -22 -12 -3 -18 -10 -14 -16 3 -6 -2 -11
-12 -11 -15 0 -19 7 -17 29 1 16 5 34 9 40 3 6 0 11 -9 11 -8 0 -21 3 -30 6
-11 4 -16 1 -16 -10 0 -9 -7 -19 -15 -22 -10 -4 -13 -15 -10 -35 3 -16 1 -29
-5 -29 -5 0 -10 5 -10 12 0 9 -3 9 -12 0 -19 -19 -28 -14 -20 11 12 38 9 112
-5 109 -7 -1 -13 4 -13 11 0 23 -70 86 -91 82 -11 -2 -19 2 -19 10 0 8 -5 17
-12 21 -8 5 -9 2 -5 -11 5 -11 0 -23 -13 -35 -11 -9 -17 -20 -13 -24 3 -3 -1
-6 -10 -6 -9 0 -17 8 -18 18 0 10 -3 12 -6 5 -2 -7 -13 -13 -24 -13 -13 0 -19
-7 -19 -21 0 -34 -23 -50 -58 -39 -24 6 -34 5 -44 -7 -10 -12 -10 -17 2 -27 8
-6 16 -19 18 -30 3 -15 -1 -18 -23 -14 -20 4 -25 2 -21 -9 9 -21 17 -70 10
-55 -3 6 -9 10 -14 7 -5 -3 -15 2 -24 10 -13 14 -17 13 -40 -10 -25 -25 -25
-29 6 -26 15 2 15 -2 5 -31 -7 -18 -16 -36 -21 -39 -5 -4 5 -10 23 -14 42 -9
39 -25 -4 -23 -19 1 -38 -2 -41 -5 -4 -3 -13 0 -21 8 -17 18 -37 20 -27 3 5
-7 0 -9 -14 -6 -13 4 -23 0 -27 -9 -6 -16 12 -46 24 -39 3 3 7 -13 7 -35 1
-39 -8 -50 -23 -26 -5 8 -9 2 -13 -17 -7 -40 -21 -38 -42 3 -9 19 -22 39 -27
44 -6 6 -11 19 -11 28 0 9 -6 22 -14 28 -12 10 -14 9 -9 -7 3 -14 -2 -21 -17
-25 -12 -3 -19 -10 -15 -16 3 -7 -2 -11 -14 -11 -11 0 -25 -9 -31 -19 -14 -27
-10 -102 7 -108 14 -5 19 -43 6 -43 -13 0 -73 -57 -73 -69 0 -6 -4 -11 -10
-11 -5 0 -10 -8 -10 -17 -1 -34 -67 -110 -117 -134 -26 -13 -52 -24 -58 -26
-5 -1 -28 -7 -50 -13 -42 -12 -57 -13 -90 -6 -12 2 -31 -7 -48 -23 -15 -14
-33 -26 -40 -27 -7 0 -24 -2 -39 -2 -15 -1 -38 -13 -52 -27 -25 -25 -50 -30
-129 -23 -23 2 -42 -1 -49 -10 -6 -7 -17 -11 -25 -8 -7 3 -13 1 -13 -5 0 -5
-11 -15 -25 -21 -13 -6 -27 -19 -31 -30 -3 -10 -9 -16 -14 -13 -5 3 -15 -3
-22 -15 -7 -11 -34 -27 -61 -36 -43 -14 -51 -22 -75 -70 -23 -48 -47 -72 -59
-60 -6 5 -11 34 -13 66 -1 20 -5 15 -20 -23 -16 -43 -17 -52 -5 -81 8 -19 12
-35 10 -38 -2 -2 -5 -20 -7 -41 -1 -21 -7 -37 -14 -37 -12 0 -30 -37 -26 -52
1 -4 -2 -18 -7 -31 -7 -18 -5 -31 10 -53 10 -16 19 -39 19 -52 0 -12 6 -25 14
-28 8 -3 17 -19 20 -37 3 -17 16 -41 27 -53 16 -17 19 -31 15 -65 -3 -24 -5
-47 -5 -51 -1 -12 -31 -10 -31 2 0 5 -10 -1 -23 -13 l-23 -22 22 -30 c30 -40
46 -82 49 -127 2 -21 16 -56 34 -83 17 -25 31 -55 31 -66 0 -10 4 -19 9 -19
16 0 31 -54 35 -125 2 -38 11 -90 20 -115 9 -25 18 -49 19 -54 1 -5 14 -23 29
-39 31 -33 44 -78 30 -104 -14 -26 -14 -25 -3 -56 6 -16 8 -34 4 -40 -5 -7 -8
-37 -8 -69 0 -49 -4 -60 -28 -82 -16 -15 -34 -23 -43 -19 -13 5 -15 -2 -12
-38 2 -30 7 -43 16 -41 18 3 78 -34 96 -59 7 -11 23 -21 35 -22 11 -1 21 -8
21 -16 0 -11 15 -13 80 -8 53 3 78 2 74 -5 -4 -6 2 -8 16 -3 12 4 28 8 34 9
31 6 55 18 60 31 3 8 10 15 16 15 5 0 18 8 29 19 11 11 28 17 42 14 16 -3 31
3 44 16 11 12 29 30 39 41 13 13 32 20 57 20 21 0 49 4 63 10 18 7 26 6 26 -1
0 -8 4 -8 13 -2 6 5 46 9 87 8 63 -2 76 -5 79 -20 2 -13 5 -14 11 -6 4 7 20
14 36 17 16 2 39 6 51 8 13 2 28 -3 34 -10 6 -8 16 -11 23 -7 6 4 17 8 24 9
13 2 49 42 51 57 5 43 62 95 101 92 8 0 30 10 49 22 19 13 38 23 43 23 6 0 24
10 41 22 27 19 46 23 122 24 49 1 104 7 120 14 17 6 41 14 54 16 48 10 120 47
126 65 7 19 25 27 25 9 0 -11 240 -1 256 11 14 11 75 -7 100 -29 10 -10 27
-21 37 -25 9 -3 17 -11 17 -17 0 -7 6 -8 18 -1 27 14 69 10 89 -8 19 -18 50
-21 71 -8 8 6 23 -2 41 -22 16 -17 30 -28 33 -26 3 3 12 -3 22 -14 12 -13 14
-25 8 -42 -10 -28 -5 -62 8 -54 17 11 70 -25 70 -47 0 -11 11 -30 24 -42 23
-21 56 -102 56 -138 0 -10 7 -18 16 -18 8 0 13 4 9 9 -3 6 3 14 12 20 10 6 14
11 10 11 -4 0 6 13 23 30 16 16 30 32 30 35 0 12 29 35 43 35 8 0 17 6 20 14
3 8 16 16 28 18 14 2 30 17 42 41 10 20 23 37 29 37 5 0 6 -4 3 -10 -3 -5 -1
-10 5 -10 7 0 10 -6 7 -14 -3 -7 1 -26 9 -42 19 -35 19 -35 4 -44 -6 -4 -13
-20 -16 -36 -2 -16 -6 -34 -8 -40 -2 -6 0 -17 4 -25 5 -8 4 -19 -2 -26 -6 -7
-7 -13 -3 -13 4 0 1 -7 -6 -16 -12 -14 -11 -16 6 -13 11 3 18 7 15 10 -3 3 0
12 6 20 6 8 10 25 10 39 -1 14 5 31 12 39 10 10 10 16 1 27 -13 16 -13 16 19
19 16 2 21 -2 18 -11 -3 -8 -2 -14 3 -14 4 0 20 -24 34 -52 22 -44 25 -59 18
-90 -5 -20 -6 -39 -3 -42 3 -4 -2 -6 -12 -6 -9 0 -14 -4 -11 -10 4 -6 13 -5
25 2 23 14 89 -12 111 -44 8 -11 20 -27 27 -34 7 -8 10 -14 5 -14 -4 0 -3 -4
2 -8 22 -15 34 -62 28 -111 -4 -41 -2 -52 11 -57 9 -4 31 -27 48 -51 28 -42
33 -45 64 -40 26 4 34 2 34 -9 0 -8 4 -13 10 -9 5 3 17 -6 26 -21 16 -23 19
-24 29 -10 8 10 20 13 36 10 13 -3 35 -7 49 -9 14 -2 50 -16 80 -31 30 -16 60
-27 67 -26 6 1 14 -2 18 -8 8 -13 115 68 115 87 0 8 9 17 20 20 11 3 20 10 20
16 0 6 3 7 7 4 3 -4 12 1 19 10 11 16 14 16 32 -6 16 -21 17 -28 6 -49 -7 -14
-19 -29 -26 -33 -10 -6 -10 -9 -1 -9 7 0 20 11 28 24 11 16 22 22 35 19 22 -6
34 -30 19 -38 -14 -9 -1 -25 21 -25 10 0 23 -7 28 -16 8 -15 11 -15 33 -1 15
10 29 13 38 8 16 -10 46 4 86 42 16 15 33 27 38 27 4 0 5 5 2 10 -3 5 1 10 9
10 9 0 16 4 16 10 0 5 3 9 8 8 4 -1 21 5 37 12 17 7 70 14 119 16 107 4 128
19 132 93 3 49 9 86 22 123 5 13 7 33 6 45 0 13 3 23 7 23 5 0 9 7 9 15 0 8 4
15 9 15 5 0 13 10 17 23 3 12 13 29 20 38 8 9 16 26 19 38 2 11 6 25 9 29 3 5
7 21 10 37 3 15 15 38 27 51 12 13 23 38 25 55 2 18 8 35 13 38 7 5 28 40 66
112 5 11 17 19 25 19 31 0 62 31 57 56 -2 14 0 27 4 30 14 8 47 78 53 108 2
14 7 30 11 36 3 5 1 19 -5 30 -9 16 -7 28 5 53 9 18 25 71 35 118 10 47 23 95
29 107 11 21 4 115 -8 108 -3 -2 -8 21 -9 52 -3 51 -16 77 -32 67 -4 -2 -7 45
-7 105 0 62 -5 115 -11 122 -6 7 -12 29 -14 48 -2 19 -7 34 -13 33 -17 -3 -55
40 -50 56 3 11 -5 21 -26 30 -16 7 -28 16 -25 18 3 3 0 15 -5 26 -8 14 -8 22
1 27 6 4 11 9 10 11 -1 2 1 11 5 20 9 24 1 64 -16 81 -15 16 -51 10 -63 -11
-4 -6 -13 -8 -21 -4 -9 3 -15 -1 -15 -10 0 -13 -5 -14 -30 -6 -16 6 -31 16
-31 22 -1 7 -2 39 -3 72 -1 41 -5 60 -14 60 -6 0 -28 13 -47 28 -25 20 -35 24
-35 13 0 -8 4 -16 10 -18 5 -2 6 -9 1 -16 -6 -11 -15 -7 -39 16 -40 39 -52 64
-52 106 0 19 -5 36 -10 38 -6 2 -12 16 -14 33 -2 19 -16 40 -42 62 -36 30 -38
34 -26 54 12 18 12 23 0 30 -7 5 -20 9 -28 9 -9 0 -23 9 -33 20 -10 12 -22 18
-27 15 -6 -3 -10 -1 -10 4 0 6 -8 11 -18 11 -23 0 -42 19 -42 42 0 12 -8 18
-24 18 -29 0 -42 27 -23 49 34 40 25 89 -19 110 -21 9 -26 7 -40 -14 l-16 -25
-39 22 c-38 21 -38 22 -33 71 2 27 7 54 10 58 3 5 0 9 -6 9 -7 0 -10 6 -7 14
3 7 -1 25 -8 39 -7 14 -11 28 -7 31 3 3 0 6 -6 6 -6 0 -14 9 -17 20 -4 11 -10
18 -14 15 -13 -8 -32 44 -25 71 3 13 1 31 -6 38 -6 8 -12 46 -13 85 -1 39 -5
71 -9 71 -4 0 -19 11 -33 26 -14 14 -29 23 -34 19 -5 -3 -11 5 -13 17 -2 17
-9 22 -23 20 -11 -2 -23 -10 -28 -17 -4 -8 -17 -12 -29 -10 -23 5 -40 24 -32
37 3 4 0 8 -6 8 -7 0 -10 6 -7 14 3 7 1 18 -5 24 -6 6 -12 33 -13 59 -4 98 -5
104 -17 97 -8 -5 -9 0 -5 16 6 25 -11 60 -30 60 -15 0 -17 19 -4 39 7 11 4 18
-12 25 -16 9 -22 22 -24 56 -6 94 -18 112 -63 92z"/>
<path d="M2510 5079 c0 -6 -6 -9 -14 -6 -10 4 -14 0 -11 -14 5 -23 -3 -24 -33
-3 -14 10 -22 11 -22 3 0 -6 -6 -9 -13 -6 -8 3 -14 0 -14 -6 0 -8 20 -12 51
-13 39 -1 55 3 68 19 17 19 16 37 -3 37 -5 0 -9 -5 -9 -11z"/>
<path d="M3220 4696 c0 -31 6 -34 13 -6 3 11 1 23 -4 26 -5 3 -9 -6 -9 -20z"/>
<path d="M3576 4313 c-4 -11 -1 -11 14 -3 24 13 25 17 5 17 -8 0 -16 -6 -19
-14z"/>
<path d="M5405 3060 c-3 -5 -1 -10 4 -10 6 0 11 5 11 10 0 6 -2 10 -4 10 -3 0
-8 -4 -11 -10z"/>
<path d="M193 2965 c0 -8 4 -15 9 -15 5 0 6 -5 2 -12 -4 -7 -3 -8 4 -4 9 5 9
13 2 27 -13 23 -17 24 -17 4z"/>
<path d="M170 2881 c0 -6 4 -12 8 -15 5 -3 9 1 9 9 0 8 -4 15 -9 15 -4 0 -8
-4 -8 -9z"/>
<path d="M3290 1596 c0 -9 7 -12 21 -9 16 4 17 8 7 14 -19 13 -28 11 -28 -5z"/>
<path d="M3319 1506 c-2 -2 -22 -7 -43 -10 -22 -4 -42 -8 -44 -11 -7 -7 41
-15 63 -11 11 2 27 0 36 -5 13 -7 18 -3 21 16 4 19 1 25 -12 25 -9 0 -19 -2
-21 -4z"/>
<path d="M4195 908 c-4 -10 -4 -26 0 -35 8 -17 8 -17 12 0 3 9 3 25 0 35 -4
16 -4 16 -12 0z"/>
<path d="M4717 885 c3 -8 9 -15 14 -15 5 0 9 -7 9 -15 0 -8 5 -15 10 -15 20 0
9 37 -15 48 -20 9 -23 9 -18 -3z"/>
<path d="M4297 731 c-3 -11 -1 -21 4 -23 5 -2 10 -12 12 -23 8 -43 56 -120 94
-152 10 -8 11 -13 3 -18 -6 -4 -17 -1 -25 5 -20 17 -19 6 5 -38 26 -49 40 -66
67 -81 13 -6 22 -17 20 -24 -1 -7 9 -13 23 -13 14 -1 36 -6 50 -12 29 -12 43
-2 45 30 1 13 8 23 16 23 8 0 19 14 24 30 12 33 30 42 51 24 18 -15 27 -7 31
29 1 15 3 34 4 42 1 8 11 21 21 30 15 12 19 31 21 97 2 83 -7 104 -36 86 -7
-4 -18 -8 -25 -9 -8 -2 -21 -6 -30 -10 -9 -4 -32 -8 -51 -9 -18 -1 -36 -7 -40
-13 -8 -14 -91 -28 -91 -15 0 9 -99 49 -112 45 -5 -1 -8 2 -8 6 0 4 -15 9 -34
10 -26 2 -35 -2 -39 -17z"/>
</g>
</svg>
