<svg xmlns="http://www.w3.org/2000/svg" id="f605a664-b149-4e33-9022-4eb1c3915d4e" data-name="Layer 1" viewBox="0 0 437.83 112.66"><defs><style>.f1433eb1-8f7f-4e01-b633-1117833c918b{fill:#522a44}</style></defs><title>cope-logo</title><path class="f1433eb1-8f7f-4e01-b633-1117833c918b" d="M0 34.4C0 15.38 17.1 0 43.41 0 65.07 0 72.8 13.44 72.8 18.94c0 4.23-3.71 6.89-8 6.89-4.13 0-7.86-2.75-7.86-6.09s3.73-6 7.86-6a5.67 5.67 0 0 1 1 .07C64.26 6.22 55.58 2.08 43.41 2.08c-19.6 0-31.35 13.53-31.35 32.32s10.71 32.11 28.26 32.29c16.19 0 20.73-7.63 20.73-17.12a5.08 5.08 0 0 1 5.47-5.26c3.4 0 5.06 2 5.06 4.7 0 8-9.69 19.84-31.26 19.84C16.09 68.85 0 53.46 0 34.4m198.85 0c0-18.79-11.77-32.32-31.37-32.32s-31.36 13.53-31.36 32.32 11.77 32.39 31.36 32.39 31.37-13.58 31.37-32.39m-74.8 0c0-19 17.1-34.4 43.43-34.4s43.41 15.38 43.41 34.4-17.1 34.45-43.41 34.45-43.43-15.39-43.43-34.45M274.09 3.25v33.89h9.3c18.87 0 30.12-6.21 30.12-17.57S302.58 3.25 282.86 3.25zM254.6 65.62c6.92 0 8.37-2.33 8.37-6.55V9.8c0-4.21-1.55-6.49-8.45-6.49V1.19h29c25 0 41.25 6 41.25 18.38s-16.5 19.65-40.84 19.65h-9.81v19.85c0 4.22 1.44 6.55 8.38 6.55v2h-27.9zm140.04-31.77H388v31.72h21.78c19.69 0 25.06-12.76 25.39-19.57h2.12v21.63h-68.74v-2.06c6.91 0 8.35-2.49 8.35-6.7V9.7c0-4.22-1.55-6.41-8.45-6.41V1.2h68.88v18.74h-2.12c-.33-6.84-5.7-16.65-23.52-16.65H388V31.8h6.6c15.47 0 22.58-4.42 22.58-14.08h2v31h-2c0-12-8.25-14.82-22.58-14.82m-377 57.16a5.5 5.5 0 0 0 1.08-1.13c.12-.28.28-.42.5-.42s.36.21.38.62l.38 6a2.6 2.6 0 0 1 0 .63c0 .07-.11.11-.25.11s-.38-.25-.59-.74a11.76 11.76 0 0 0-3.17-4.5 6.74 6.74 0 0 0-4.44-1.74 6.22 6.22 0 0 0-3.87 1.35 8.77 8.77 0 0 0-2.73 3.86 14.74 14.74 0 0 0-1 5.39 11.57 11.57 0 0 0 2.7 7.95 7.92 7.92 0 0 0 6 3.06 6.79 6.79 0 0 0 4.16-1.43 9.91 9.91 0 0 0 2.86-3.31c.17-.34.35-.52.53-.52s.38.14.38.42a5.82 5.82 0 0 1-1.31 2.19 9.83 9.83 0 0 1-3.44 2.74 10.19 10.19 0 0 1-4.57 1 11 11 0 0 1-5.48-1.47 10.8 10.8 0 0 1-4.11-4 11.75 11.75 0 0 1-1.51-6.04 12.84 12.84 0 0 1 1.48-6.16 10.55 10.55 0 0 1 4.15-4.25 11 11 0 0 1 5.52-1.52 11 11 0 0 1 3.1.47 15.5 15.5 0 0 1 3.25 1.44m7.65 12.29c1.5.07 2.94.11 4.35.11l.92-.06a3 3 0 0 0 1.59-.4 1.46 1.46 0 0 0 .55-1.3 3.62 3.62 0 0 0-1-2.53 3.13 3.13 0 0 0-2.34-1.07 3.57 3.57 0 0 0-2.48 1.23 6.76 6.76 0 0 0-1.6 4m0 .9c-.05.59-.07 1-.07 1.4a6.13 6.13 0 0 0 1.44 4.13 4.5 4.5 0 0 0 3.57 1.69 5.58 5.58 0 0 0 3.82-1.63c.34-.31.56-.47.66-.47s.28.15.29.45a5.1 5.1 0 0 1-2.24 2 7.57 7.57 0 0 1-3.54.83 6.48 6.48 0 0 1-4.84-2.06 7.21 7.21 0 0 1-2-5.21 7.79 7.79 0 0 1 2.18-5.64 6.46 6.46 0 0 1 4.66-2.26 6 6 0 0 1 4.21 1.77 5.52 5.52 0 0 1 1.87 4.14 1 1 0 0 1-.11.54c-.07.11-.51.17-1.32.17zm16.54-6.43a11.35 11.35 0 0 1 .5 3.43 8.08 8.08 0 0 1 2.37-2.53 5.05 5.05 0 0 1 2.83-.85 6.11 6.11 0 0 1 2.27.44 3.33 3.33 0 0 1 1.69 1.52 8.2 8.2 0 0 1 .59 3.66l-.1 5.8a4.67 4.67 0 0 0 .26 2 2 2 0 0 0 1.15.65c.4.11.6.24.6.38s-.09.25-.29.25h-.24a12.46 12.46 0 0 0-2.34-.16q-1.4 0-3 .12c-.43 0-.64-.1-.64-.29s.11-.23.35-.28a3.52 3.52 0 0 0 1.22-.44 1.19 1.19 0 0 0 .41-.59 14.81 14.81 0 0 0 .2-2.49c0-1.41.07-2.56.07-3.44 0-2.42-.3-4-.91-4.84a2.76 2.76 0 0 0-2.27-1.2 3.9 3.9 0 0 0-3.36 2.18c-.88 1.45-1.33 3.87-1.33 7.27a8.63 8.63 0 0 0 .3 2.93c.2.42.71.68 1.51.77.25 0 .38.13.38.32s-.13.25-.38.25l-.9-.07h-4.55c-.5 0-.76-.09-.76-.28s.28-.34.83-.44a1.63 1.63 0 0 0 1.05-.55 6.79 6.79 0 0 0 .37-2.58c.07-1.46.1-3.28.1-5.47a10 10 0 0 0-.42-3.8 1.76 1.76 0 0 0-1.15-.91c-.45-.1-.67-.25-.67-.43s.17-.29.52-.29h3.72m19.87 1.24q-.24 3.81-.24 7.49c0 1.89.22 3.12.67 3.69a2.31 2.31 0 0 0 1.94.87 4 4 0 0 0 2-.68 1.58 1.58 0 0 1 .48-.24c.15 0 .22.08.22.24s-.4.72-1.22 1.31a5 5 0 0 1-3 .9 3 3 0 0 1-2.64-1.23 6.2 6.2 0 0 1-.88-3.65c0-1.7.1-4.59.31-8.7-.09 0-.63-.06-1.64-.12l-1-.07c-.26 0-.39-.1-.39-.26s.15-.27.44-.36A12 12 0 0 0 59 96.76a4.93 4.93 0 0 0 2-3.54q.08-.6.39-.6c.21 0 .32.16.32.48a1.94 1.94 0 0 1 0 .33v4.22l3.77-.05c.65 0 1 .07 1 .22 0 .53-.09.86-.25 1-.6 0-2.11.09-4.52.26m11.5 2.69a9.79 9.79 0 0 1 2.32-2.9 4.16 4.16 0 0 1 2.59-1 2.22 2.22 0 0 1 1.64.68 2.11 2.11 0 0 1 .69 1.54c0 1.09-.46 1.64-1.39 1.64-.44 0-.81-.31-1.11-.92s-.85-1.15-1.46-1.15a2.53 2.53 0 0 0-1.78 1 4.79 4.79 0 0 0-1.22 2.11 22.77 22.77 0 0 0-.31 4.8 13.64 13.64 0 0 0 .27 3.84c.19.33.66.54 1.42.64.2 0 .31.1.31.24s-.27.36-.81.36h-5.5c-.39 0-.59-.1-.59-.29s.26-.29.78-.31c.72 0 1.17-.27 1.34-.68a19.48 19.48 0 0 0 .26-4.45 52.28 52.28 0 0 0-.23-6.78c-.16-.76-.73-1.16-1.73-1.21-.42 0-.62-.13-.62-.33a.25.25 0 0 1 .13-.23 7.72 7.72 0 0 1 1.57-.16L73 98c.07.63.16 1.87.25 3.73m11.94 1.62c1.5.07 3 .11 4.35.11l.92-.06a3 3 0 0 0 1.59-.4 1.46 1.46 0 0 0 .55-1.3 3.62 3.62 0 0 0-1-2.53 3.11 3.11 0 0 0-2.34-1.07 3.57 3.57 0 0 0-2.48 1.23 6.76 6.76 0 0 0-1.6 4m0 .9c0 .59-.07 1-.07 1.4a6.13 6.13 0 0 0 1.44 4.13 4.5 4.5 0 0 0 3.57 1.69 5.58 5.58 0 0 0 3.88-1.63c.34-.31.56-.47.66-.47s.28.15.29.45a5.15 5.15 0 0 1-2.24 2 7.57 7.57 0 0 1-3.54.83 6.48 6.48 0 0 1-4.84-2.06 7.21 7.21 0 0 1-2-5.21 7.83 7.83 0 0 1 2.18-5.64 6.46 6.46 0 0 1 4.66-2.26 6 6 0 0 1 4.21 1.77 5.52 5.52 0 0 1 1.87 4.14 1 1 0 0 1-.11.54c-.07.11-.51.17-1.32.17zm23.82.87a8.46 8.46 0 0 0 1.37 4.93 3.85 3.85 0 0 0 6.64.12 7.91 7.91 0 0 0 1.4-4.89 8.85 8.85 0 0 0-1.35-4.85 4 4 0 0 0-3.51-2.12 3.79 3.79 0 0 0-3.27 1.93 8.73 8.73 0 0 0-1.28 4.88m-2.79.11a7.53 7.53 0 0 1 2.19-5.34 7.44 7.44 0 0 1 10.6-.24 6.85 6.85 0 0 1 2.16 5.16 7.72 7.72 0 0 1-2.27 5.5 7.15 7.15 0 0 1-5.31 2.37 7 7 0 0 1-5.16-2.18 7.24 7.24 0 0 1-2.15-5.27m21.82-5.79c-.05.45-.08 1.89-.08 4.31v5.76a2.83 2.83 0 0 0 .58 1.75 2.6 2.6 0 0 0 1.82.83c.32 0 .48.15.48.35s-.13.24-.38.24l-2.9-.17a36.49 36.49 0 0 0-3.77.13h-.19c-.25 0-.38-.08-.38-.25s.2-.32.6-.38a2.24 2.24 0 0 0 1.12-.37 1.21 1.21 0 0 0 .44-.73 28 28 0 0 0 .22-3.32c.07-1.9.1-3.79.1-5.66v-2.49c-.86 0-1.51-.09-2-.1s-.67-.14-.67-.38a.88.88 0 0 1 .31-.81 7.33 7.33 0 0 1 2.32-.24 19.92 19.92 0 0 1 .47-4.82 5.4 5.4 0 0 1 2-3 6.08 6.08 0 0 1 3.84-1.18 5 5 0 0 1 3.1.76 2.33 2.33 0 0 1 .95 1.88c0 .8-.38 1.21-1.14 1.21a.88.88 0 0 1-.68-.3 6.82 6.82 0 0 1-.83-1.38 2.45 2.45 0 0 0-2.22-1.55 2.55 2.55 0 0 0-2.65 2 15 15 0 0 0-.6 4.25c0 .65 0 1.34.08 2.07h.86a13.51 13.51 0 0 1 2 .11c.43.08.64.23.64.45a1.16 1.16 0 0 1-.2.6 1.14 1.14 0 0 1-.86.37c-.44 0-.91.06-1.42.06h-1m26.13 1.28c1.69.06 2.64.08 2.87.08a8.85 8.85 0 0 0 3.31-.6 4 4 0 0 0 2.27-2.18 7.55 7.55 0 0 0 .71-3.1 4.49 4.49 0 0 0-1.34-3.27c-.88-.91-2.47-1.36-4.75-1.36a11.43 11.43 0 0 0-3.1.38v.78l.07 4-.07 4.21v1.1m0 .69c0 .52 0 1.29-.11 2.32v1.54c0 .54 0 1.23.06 2.52a10.42 10.42 0 0 0 .24 2.43 2.17 2.17 0 0 0 .8.93 2.39 2.39 0 0 0 1.31.48c.53 0 .8.15.8.36a.25.25 0 0 1-.24.28 17.86 17.86 0 0 1-1.83 0h-4.74a16.39 16.39 0 0 1-2.13-.06.24.24 0 0 1-.13-.23c0-.19.22-.32.66-.42a2.89 2.89 0 0 0 1.61-.8 4.56 4.56 0 0 0 .56-2.37c.07-1.21.1-2.61.1-4.2l-.11-4.6.05-5a9.56 9.56 0 0 0-.36-3.37 1.8 1.8 0 0 0-1.41-.92c-.76-.14-1.14-.31-1.14-.5s.17-.3.51-.3h8.9c3.61 0 6 .56 7.28 1.69a5.41 5.41 0 0 1 1.87 4.21 5 5 0 0 1-2.45 4.53q-2.44 1.51-7.36 1.51c-.79 0-1.71 0-2.75-.1m16.13 1.99c1.5.07 2.95.11 4.36.11h.91a3.08 3.08 0 0 0 1.59-.41 1.44 1.44 0 0 0 .55-1.3 3.58 3.58 0 0 0-1-2.52 3.08 3.08 0 0 0-2.34-1.08 3.57 3.57 0 0 0-2.48 1.23 6.89 6.89 0 0 0-1.6 4m0 .9c0 .59-.07 1-.07 1.4a6.16 6.16 0 0 0 1.45 4.13 4.49 4.49 0 0 0 3.56 1.69 5.56 5.56 0 0 0 3.85-1.65c.35-.31.57-.47.66-.47s.28.15.3.45a5.18 5.18 0 0 1-2.25 2 7.5 7.5 0 0 1-3.53.83 6.46 6.46 0 0 1-4.85-2.06 7.21 7.21 0 0 1-2-5.21 7.83 7.83 0 0 1 2.18-5.64 6.48 6.48 0 0 1 4.66-2.26 6 6 0 0 1 4.21 1.77 5.53 5.53 0 0 1 1.88 4.15 1 1 0 0 1-.11.53c-.08.12-.52.17-1.33.17zm17.09-2.87a9.64 9.64 0 0 1 2.32-2.9 4.16 4.16 0 0 1 2.59-1 2.24 2.24 0 0 1 1.64.68 2.09 2.09 0 0 1 .69 1.54c0 1.09-.47 1.64-1.4 1.64-.43 0-.8-.31-1.1-.91-.37-.78-.86-1.16-1.46-1.16a2.53 2.53 0 0 0-1.78 1 4.79 4.79 0 0 0-1.22 2.11 22.75 22.75 0 0 0-.31 4.81 13.65 13.65 0 0 0 .27 3.83c.19.33.66.54 1.42.63.2 0 .31.11.31.25s-.27.36-.81.36H183c-.39 0-.59-.1-.59-.29s.26-.29.78-.32c.72 0 1.17-.27 1.34-.67a18.86 18.86 0 0 0 .26-4.45 54.35 54.35 0 0 0-.23-6.78c-.16-.76-.74-1.17-1.73-1.21-.42 0-.62-.13-.62-.33a.26.26 0 0 1 .12-.23 9 9 0 0 1 1.58-.16l3.17-.18c.08.62.17 1.87.26 3.73m12.06-12.33a1.69 1.69 0 0 1 1.17.48 1.44 1.44 0 0 1 .52 1 1.69 1.69 0 0 1-.43 1.16 1.45 1.45 0 0 1-1.16.48 1.76 1.76 0 0 1-1.17-.43 1.41 1.41 0 0 1-.52-1.14 1.61 1.61 0 0 1 .44-1.16 1.58 1.58 0 0 1 1.15-.44m1.91 8.42v12.29a2.12 2.12 0 0 0 .41 1.58 2 2 0 0 0 1.21.37c.63 0 .95.17.95.39s-.12.28-.36.28a1.67 1.67 0 0 1-.31 0 25 25 0 0 0-3-.2 23.18 23.18 0 0 0-3.05.13 1.32 1.32 0 0 1-.34 0c-.27 0-.41-.1-.41-.31s.32-.35 1-.43a2.09 2.09 0 0 0 1.23-.42 3.35 3.35 0 0 0 .26-1.72l.13-7.13c0-1.91-.15-3-.44-3.39a2.15 2.15 0 0 0-1.67-.56c-.27 0-.41-.09-.41-.28a.26.26 0 0 1 .14-.24 13.24 13.24 0 0 1 2-.22c1.27-.09 2.16-.15 2.65-.16m8.7.13a11 11 0 0 1 .5 3.42 8.19 8.19 0 0 1 2.37-2.53 5.13 5.13 0 0 1 2.84-.84 5.87 5.87 0 0 1 2.26.44 3.27 3.27 0 0 1 1.69 1.51 8.06 8.06 0 0 1 .6 3.66l-.11 5.8a4.49 4.49 0 0 0 .27 2 2 2 0 0 0 1.15.64c.4.11.6.24.6.38s-.1.26-.29.26h-.25a13.22 13.22 0 0 0-2.34-.16c-.93 0-1.93 0-3 .13-.42 0-.64-.1-.64-.3s.12-.23.35-.27a3.65 3.65 0 0 0 1.24-.43 1.22 1.22 0 0 0 .41-.6 14.63 14.63 0 0 0 .2-2.48c.05-1.41.08-2.56.08-3.45 0-2.42-.31-4-.91-4.83a2.75 2.75 0 0 0-2.28-1.21 3.9 3.9 0 0 0-3.35 2.18Q210 103 210 108.13a8.66 8.66 0 0 0 .3 2.94 1.79 1.79 0 0 0 1.51.76c.26 0 .38.13.38.33s-.12.24-.38.24l-.89-.07h-4.55c-.51 0-.76-.09-.76-.27s.27-.35.82-.45a1.64 1.64 0 0 0 1.06-.55 7.12 7.12 0 0 0 .37-2.57c.06-1.47.09-3.29.09-5.47a10.31 10.31 0 0 0-.41-3.8 1.76 1.76 0 0 0-1.16-.92c-.44-.1-.67-.24-.67-.43s.17-.29.52-.29h3.72m23.29 5.79a7.49 7.49 0 0 1-2.34 1.63 9.77 9.77 0 0 0-2.6 1.77 3 3 0 0 0-.79 2.07 2.76 2.76 0 0 0 .64 1.85 2 2 0 0 0 1.61.75 3.19 3.19 0 0 0 1.88-.61 3.7 3.7 0 0 0 1.3-1.56 7.21 7.21 0 0 0 .42-2.81c0-.93 0-2-.12-3.1m0 6.72a5.57 5.57 0 0 1-2 1.84 5.64 5.64 0 0 1-2.66.61 3.83 3.83 0 0 1-2.73-.93 3.21 3.21 0 0 1-1-2.45 4 4 0 0 1 .6-2.12 3.7 3.7 0 0 1 1.36-1.41 18 18 0 0 1 2.69-1.09 9.55 9.55 0 0 0 3.31-1.52 2.21 2.21 0 0 0 .55-1.57 3.61 3.61 0 0 0-.72-2.39 2.53 2.53 0 0 0-2-.86 2.45 2.45 0 0 0-1.64.48 3.71 3.71 0 0 0-.84 2c-.21 1.06-.66 1.59-1.36 1.59a1.37 1.37 0 0 1-.84-.37 1.41 1.41 0 0 1-.46-1.13 2.69 2.69 0 0 1 1.44-2.24 7 7 0 0 1 3.92-1 7.57 7.57 0 0 1 3.17.56 2.79 2.79 0 0 1 1.48 1.28 8.59 8.59 0 0 1 .3 2.8l-.1 4.56a14.89 14.89 0 0 0 .32 3.75c.21.74.6 1.11 1.18 1.11a3.89 3.89 0 0 0 .48 0h.29c.27 0 .4.1.4.29 0 .44-1.13.66-3.4.66a1.55 1.55 0 0 1-1.31-.45 3.74 3.74 0 0 1-.38-1.91m11.09-11.09q-.24 3.81-.24 7.49c0 1.89.22 3.12.67 3.69a2.31 2.31 0 0 0 1.94.87 3.94 3.94 0 0 0 2-.68 1.7 1.7 0 0 1 .49-.24c.15 0 .22.08.22.24s-.41.72-1.22 1.31a5 5 0 0 1-3 .9 3 3 0 0 1-2.65-1.23 6.28 6.28 0 0 1-.88-3.65c0-1.7.11-4.59.31-8.7-.08 0-.62-.06-1.63-.12l-1-.07c-.25 0-.38-.1-.38-.26s.15-.27.43-.36a11.26 11.26 0 0 0 2.37-1.51 5 5 0 0 0 1.94-3.54q.08-.6.39-.6c.21 0 .32.15.32.48v4.55l3.77-.05c.65 0 1 .07 1 .22a1.42 1.42 0 0 1-.26 1c-.59 0-2.1.09-4.51.26m15.48 4.29a7.57 7.57 0 0 1-2.35 1.64 9.94 9.94 0 0 0-2.6 1.77 3 3 0 0 0-.79 2.07 2.72 2.72 0 0 0 .65 1.85 2 2 0 0 0 1.61.75 3.24 3.24 0 0 0 1.88-.61 3.77 3.77 0 0 0 1.3-1.56 7.21 7.21 0 0 0 .42-2.81c0-.93 0-2-.12-3.1m0 6.72a5.38 5.38 0 0 1-4.67 2.45 3.83 3.83 0 0 1-2.73-.93 3.21 3.21 0 0 1-1-2.45 4 4 0 0 1 .59-2.12 3.77 3.77 0 0 1 1.36-1.41 17.77 17.77 0 0 1 2.7-1.09 9.66 9.66 0 0 0 3.31-1.52 2.26 2.26 0 0 0 .55-1.57 3.61 3.61 0 0 0-.72-2.39 2.56 2.56 0 0 0-2-.86 2.41 2.41 0 0 0-1.64.48 3.7 3.7 0 0 0-.85 2c-.2 1.06-.66 1.59-1.36 1.59a1.34 1.34 0 0 1-.83-.37 1.38 1.38 0 0 1-.46-1.13 2.7 2.7 0 0 1 1.43-2.24 7 7 0 0 1 3.93-1 7.52 7.52 0 0 1 3.16.56 2.76 2.76 0 0 1 1.48 1.28 8.51 8.51 0 0 1 .31 2.8l-.11 4.56a15.38 15.38 0 0 0 .32 3.75c.21.74.61 1.11 1.18 1.11a3.55 3.55 0 0 0 .48 0h.3c.26 0 .39.1.39.29q0 .66-3.39.66a1.56 1.56 0 0 1-1.32-.45 3.77 3.77 0 0 1-.37-1.91m11.54-21.49c0 1.44.06 2.89.09 4.34v10.73l.07 5.2a4.08 4.08 0 0 0 .42 2.13 2.28 2.28 0 0 0 1.82.78c.37 0 .55.14.55.33s-.15.29-.44.29h-.3c-1.18-.11-2.59-.17-4.24-.17a15.47 15.47 0 0 0-2.41.15 2.18 2.18 0 0 1-.35 0c-.34 0-.51-.11-.51-.32s.15-.3.46-.32a2.16 2.16 0 0 0 2.06-.9 6.49 6.49 0 0 0 .5-3l-.06-9.82c0-3.16-.05-5-.13-5.66a2.57 2.57 0 0 0-.71-1.54 3 3 0 0 0-1.69-.8c-.45-.07-.67-.18-.67-.36s.18-.3.55-.32a19.22 19.22 0 0 0 4.74-.76zM303.78 90a52.85 52.85 0 0 1 1 5.41c-.06.09-.12.14-.19.14a.38.38 0 0 1-.25-.14 14.19 14.19 0 0 0-2.28-2.92 7.31 7.31 0 0 0-2.19-1.49 11.75 11.75 0 0 0-3.77-.42 21.69 21.69 0 0 0-4 .29 1 1 0 0 0-.14.64v.43q-.17 1.38-.17 7.47v.72h1.79a5.9 5.9 0 0 0 3.15-.65 5.37 5.37 0 0 0 1.7-2.8c.07-.24.19-.36.34-.36s.32.17.32.5l-.07.7c-.09.9-.13 1.84-.13 2.81 0 1.56 0 3 .08 4.23 0 .39-.1.59-.31.59s-.26-.14-.32-.42a4.57 4.57 0 0 0-1.52-2.93c-.77-.6-2.45-.9-5-.9 0 .84-.06 2.2-.06 4.07a24.35 24.35 0 0 0 .26 4.62 2.51 2.51 0 0 0 1.24 1.56 6.94 6.94 0 0 0 3.33.58q6.71 0 8.66-4.62c.16-.38.32-.57.49-.57s.28.13.28.38a1.29 1.29 0 0 1-.09.45c-.07.22-.23 1-.5 2.44-.06.3-.28 1.2-.65 2.69h-7.23c-1 0-2.55 0-4.56-.13s-3.77-.14-5.32-.14a16.42 16.42 0 0 1-2.42-.09.26.26 0 0 1-.1-.19c0-.24.19-.35.56-.35a2.71 2.71 0 0 0 2.52-1q.6-1 .6-5v-3.53l.05-3.3c0-.67 0-1.93-.11-3.79s-.15-2.91-.21-3.17a1.46 1.46 0 0 0-.54-.78 5.41 5.41 0 0 0-1.93-.79c-.3-.08-.45-.21-.45-.38s.2-.31.6-.31l3.52.19q1.86.09 9.15.09h4.89m11.55 15.4L311 99.39a3.11 3.11 0 0 0-2.41-1.15c-.37 0-.55-.16-.55-.38a.26.26 0 0 1 .22-.26 8.14 8.14 0 0 1 1.16 0h5.48c.6 0 .9.1.9.31s-.42.39-1.24.5c-.42 0-.63.18-.63.41s1 1.84 3.07 4.7q2.63-3.56 2.62-4.29c0-.51-.4-.82-1.21-.93q-.48-.06-.48-.36c0-.23.38-.34 1.14-.34h3.75c.53 0 .8.1.8.31s-.18.36-.55.36a2.44 2.44 0 0 0-2 .69q-.59.69-3.67 5.1l3.25 4.48A11 11 0 0 0 323 111a3.52 3.52 0 0 0 1.67.55c.35 0 .52.13.52.33a.29.29 0 0 1-.21.3 4.74 4.74 0 0 1-1.13.08h-5.52c-.7 0-1.05-.12-1.05-.35s.19-.32.55-.34c.89-.08 1.33-.34 1.33-.78a1.41 1.41 0 0 0-.34-.77c-.1-.14-.34-.5-.72-1.11-.55-.84-1.3-1.88-2.26-3.13q-2.93 4.34-2.92 4.94c0 .56.53.85 1.59.88.39 0 .58.13.58.35s-.33.31-1 .31h-4.63c-.63 0-.95-.12-.95-.35s.17-.3.52-.32a6.4 6.4 0 0 0 1.69-.48 5.21 5.21 0 0 0 2.06-2zm11.34.11a8.19 8.19 0 0 1 2-5.51 6.27 6.27 0 0 1 4.94-2.37 7.59 7.59 0 0 1 3.6.92 2.68 2.68 0 0 1 1.72 2.3 1.43 1.43 0 0 1-.32.94 1 1 0 0 1-.76.41c-.65 0-1.14-.52-1.48-1.56-.53-1.58-1.46-2.37-2.78-2.37a3.29 3.29 0 0 0-3 1.7 8.59 8.59 0 0 0-1 4.46 9.06 9.06 0 0 0 1.43 5.3 4.15 4.15 0 0 0 3.44 2 4 4 0 0 0 2.57-1 3.81 3.81 0 0 0 1.43-2.48c.06-.33.18-.5.38-.5a.28.28 0 0 1 .31.31 4.33 4.33 0 0 1-1.56 3.17 5.81 5.81 0 0 1-4.18 1.49 6.21 6.21 0 0 1-4.81-2.18 7.28 7.28 0 0 1-1.94-5m17.62-2.02c1.5.07 2.95.11 4.35.11h.92a3.08 3.08 0 0 0 1.59-.41 1.46 1.46 0 0 0 .55-1.3 3.58 3.58 0 0 0-1-2.52 3.09 3.09 0 0 0-2.34-1.08 3.57 3.57 0 0 0-2.48 1.23 6.76 6.76 0 0 0-1.6 4m0 .9c-.05.59-.07 1-.07 1.4a6.15 6.15 0 0 0 1.44 4.13 4.5 4.5 0 0 0 3.57 1.69 5.56 5.56 0 0 0 3.85-1.65c.35-.31.56-.47.66-.47s.28.15.29.45a5.15 5.15 0 0 1-2.24 2 7.56 7.56 0 0 1-3.53.83 6.45 6.45 0 0 1-4.85-2.06 7.21 7.21 0 0 1-2-5.21 7.83 7.83 0 0 1 2.18-5.64 6.46 6.46 0 0 1 4.66-2.26 6 6 0 0 1 4.21 1.77 5.52 5.52 0 0 1 1.87 4.15.93.93 0 0 1-.11.53c-.07.12-.51.17-1.32.17zm17.21-15.59l.09 4.34v10.73l.07 5.2a4.08 4.08 0 0 0 .42 2.13 2.28 2.28 0 0 0 1.82.78c.37 0 .55.14.55.33s-.15.29-.45.29h-.29c-1.18-.11-2.6-.17-4.24-.17a15.47 15.47 0 0 0-2.41.15 2.18 2.18 0 0 1-.35 0c-.34 0-.51-.11-.51-.32s.15-.3.46-.32a2.18 2.18 0 0 0 2.06-.9 6.52 6.52 0 0 0 .49-3l-.05-9.82c0-3.16-.06-5-.13-5.66a2.57 2.57 0 0 0-.71-1.54 3 3 0 0 0-1.69-.8c-.45-.07-.67-.18-.67-.36s.18-.3.55-.32a19.22 19.22 0 0 0 4.74-.76zm9.92 0c0 1.44.07 2.89.09 4.34v10.73l.07 5.2a4.08 4.08 0 0 0 .42 2.13 2.26 2.26 0 0 0 1.82.78c.36 0 .55.14.55.33s-.15.29-.45.29h-.3c-1.18-.11-2.59-.17-4.23-.17a15.61 15.61 0 0 0-2.42.15 2.06 2.06 0 0 1-.34 0c-.34 0-.52-.11-.52-.32s.16-.3.47-.32a2.18 2.18 0 0 0 2.06-.9 6.52 6.52 0 0 0 .49-3l-.05-9.82c0-3.16-.06-5-.13-5.66a2.64 2.64 0 0 0-.72-1.54 3 3 0 0 0-1.68-.8c-.46-.07-.68-.18-.68-.36s.19-.3.55-.32a19.22 19.22 0 0 0 4.74-.76zm7.81 14.66c1.5.07 2.95.11 4.35.11h.92a3.08 3.08 0 0 0 1.59-.41 1.44 1.44 0 0 0 .55-1.3 3.58 3.58 0 0 0-1-2.52 3.08 3.08 0 0 0-2.34-1.08 3.57 3.57 0 0 0-2.48 1.23 6.76 6.76 0 0 0-1.6 4m0 .9c0 .59-.07 1-.07 1.4a6.11 6.11 0 0 0 1.45 4.13 4.48 4.48 0 0 0 3.56 1.69 5.54 5.54 0 0 0 3.85-1.65c.35-.31.56-.47.66-.47s.28.15.29.45a5.15 5.15 0 0 1-2.24 2 7.53 7.53 0 0 1-3.53.83 6.45 6.45 0 0 1-4.85-2.06 7.21 7.21 0 0 1-2-5.21 7.83 7.83 0 0 1 2.18-5.64 6.46 6.46 0 0 1 4.66-2.26 6 6 0 0 1 4.21 1.77 5.52 5.52 0 0 1 1.87 4.15.93.93 0 0 1-.11.53c-.07.12-.51.17-1.32.17zm16.54-6.73a11 11 0 0 1 .5 3.42 8.19 8.19 0 0 1 2.37-2.53 5.12 5.12 0 0 1 2.83-.84 5.92 5.92 0 0 1 2.27.44 3.27 3.27 0 0 1 1.69 1.51 8.09 8.09 0 0 1 .59 3.66l-.1 5.8a4.49 4.49 0 0 0 .27 2 2 2 0 0 0 1.14.64c.4.11.61.24.61.38s-.1.26-.29.26h-.25a13.38 13.38 0 0 0-2.34-.16c-.93 0-1.93 0-3 .13-.43 0-.64-.1-.64-.3s.12-.23.35-.27a3.65 3.65 0 0 0 1.24-.43 1.22 1.22 0 0 0 .41-.6 14.63 14.63 0 0 0 .2-2.48c.05-1.41.08-2.56.08-3.45 0-2.42-.31-4-.92-4.83a2.73 2.73 0 0 0-2.27-1.21 3.88 3.88 0 0 0-3.35 2.18q-1.33 2.19-1.34 7.27a8.66 8.66 0 0 0 .3 2.94c.2.41.71.67 1.51.76.25 0 .38.13.38.33s-.13.24-.38.24l-.89-.07h-4.56q-.75 0-.75-.27c0-.2.27-.35.82-.45a1.66 1.66 0 0 0 1.06-.55 7.12 7.12 0 0 0 .37-2.57c.06-1.47.09-3.29.09-5.47a10.31 10.31 0 0 0-.41-3.8 1.77 1.77 0 0 0-1.15-.92c-.46-.1-.68-.24-.68-.43s.17-.29.52-.29h3.72m14.39 7.75a8.19 8.19 0 0 1 2-5.51 6.27 6.27 0 0 1 4.94-2.37 7.56 7.56 0 0 1 3.6.92 2.68 2.68 0 0 1 1.72 2.3 1.43 1.43 0 0 1-.32.94 1 1 0 0 1-.76.41c-.64 0-1.14-.52-1.48-1.56-.53-1.58-1.46-2.37-2.78-2.37a3.3 3.3 0 0 0-3 1.7 8.59 8.59 0 0 0-1 4.46 9.13 9.13 0 0 0 1.43 5.3 4.15 4.15 0 0 0 3.45 2 4 4 0 0 0 2.56-1 3.77 3.77 0 0 0 1.43-2.48c.06-.33.19-.5.38-.5a.28.28 0 0 1 .31.31 4.33 4.33 0 0 1-1.56 3.17 5.81 5.81 0 0 1-4.18 1.49 6.19 6.19 0 0 1-4.8-2.18 7.29 7.29 0 0 1-2-5m17.67-2.02c1.5.07 2.95.11 4.36.11h.91a3.08 3.08 0 0 0 1.59-.41 1.44 1.44 0 0 0 .55-1.3 3.58 3.58 0 0 0-1-2.52 3.08 3.08 0 0 0-2.34-1.08 3.57 3.57 0 0 0-2.48 1.23 6.89 6.89 0 0 0-1.6 4m0 .9c0 .59-.07 1-.07 1.4a6.16 6.16 0 0 0 1.45 4.13 4.48 4.48 0 0 0 3.56 1.69 5.56 5.56 0 0 0 3.85-1.65c.35-.31.57-.47.66-.47s.28.15.3.45a5.18 5.18 0 0 1-2.25 2 7.53 7.53 0 0 1-3.53.83 6.46 6.46 0 0 1-4.85-2.06 7.21 7.21 0 0 1-2-5.21 7.83 7.83 0 0 1 2.18-5.64 6.48 6.48 0 0 1 4.66-2.26 6 6 0 0 1 4.29 1.77 5.53 5.53 0 0 1 1.88 4.15.92.92 0 0 1-.12.53c-.07.12-.51.17-1.32.17z"></path></svg>